PathFileType	4	(X/Y/Z)	D:\TRACE\spot_10-12-23\spot_arm_body_motion_3_3-platform.trc
DataRate	CameraRate	NumFrames	NumMarkers	Units	OrigDataRate	OrigDataStartFrame	OrigNumFrames
100.00	100.00	      24	5	mm	100.00	3501	      7000
Frame#	Time	Left_Front			Right_Front			Left_Aft			Right_Aft			Post			
		X1	Y1	Z1	X2	Y2	Z2	X3	Y3	Z3	X4	Y4	Z4	X5	Y5	Z5	

3501	35.000	-782.73865	-26.14110	-648.60138	790.26453	-21.28107	-641.43695	-699.88544	27.08909	488.38632	717.52081	35.77953	574.22925	0.36109	695.34570	-1002.21594	
3502	35.010	-782.26007	-26.46552	-648.65320	790.77979	-21.50860	-641.50714	-699.13275	27.18017	488.39020	718.00720	35.88631	574.07843	1.06913	694.90222	-1002.60590	
3503	35.020	-781.61865	-26.91072	-648.75024	791.18042	-21.92832	-641.61322	-698.60901	27.38469	487.98151	718.52899	36.09382	574.04468	1.94311	694.32056	-1003.07855	
3504	35.030	-780.71338	-27.27761	-648.78809	791.60730	-22.17368	-641.76813	-698.07214	27.48709	487.91104	719.25446	36.41817	574.03656	2.55551	693.93066	-1003.31110	
3505	35.040	-780.08850	-27.35046	-648.58435	792.41675	-22.44608	-641.78070	-697.40143	27.77685	487.79410	720.05328	36.61495	573.92279	3.23873	693.56122	-1003.56927	
3506	35.050	-779.36786	-27.80642	-648.77289	793.35358	-22.73364	-641.73145	-696.65222	27.97175	487.71011	720.65729	36.82467	573.85522	4.03742	693.22827	-1003.89832	
3507	35.060	-778.90356	-27.84048	-648.90448	793.92944	-22.84578	-641.87097	-696.06287	28.12540	487.68259	721.29114	37.04690	573.80804	4.69445	692.76770	-1004.17767	
3508	35.070	-778.07123	-28.09836	-649.00842	794.38995	-22.99823	-642.00244	-695.33234	28.23092	487.56326	721.98737	37.25270	573.79828	5.05276	692.29993	-1004.37390	
3509	35.080	-777.71405	-28.34098	-648.76862	795.12305	-23.36900	-642.15155	-694.78772	28.33373	487.47250	722.40521	37.38876	573.74103	5.79504	691.86169	-1004.72394	
3510	35.090	-776.73309	-28.63093	-648.96533	795.77374	-23.79633	-642.11444	-694.24103	28.45187	487.44647	723.13519	37.54694	573.63800	6.20516	691.62585	-1004.92047	
3511	35.100	-775.79883	-28.98341	-649.22742	796.30267	-23.76295	-642.04309	-693.45618	28.55869	487.40884	723.99231	37.75475	573.49713	6.86562	691.39514	-1005.21063	
3512	35.110	-775.30157	-29.04374	-649.17780	797.06323	-23.75329	-642.11084	-692.65442	28.74685	487.42847	724.62427	37.91890	573.45251	7.54451	691.17102	-1005.28186	
3513	35.120	-774.90247	-29.04995	-649.18573	797.88208	-23.91560	-642.12659	-692.17737	28.70415	487.41681	725.03552	38.04416	573.39880	8.31250	691.05518	-1005.34161	
3514	35.130	-774.40631	-29.09733	-649.19464	798.27252	-24.11353	-642.35468	-691.60040	28.76275	487.41751	725.61926	38.17863	573.33398	9.14893	690.71991	-1005.64532	
3515	35.140	-773.99286	-29.17518	-649.06049	798.82111	-24.28139	-642.17700	-690.88147	28.84744	487.44470	726.60376	38.32069	573.29773	9.62438	690.50500	-1005.87665	
3516	35.150	-772.84607	-29.61416	-649.19769	799.35712	-24.35206	-642.20398	-690.39728	29.00236	487.44931	727.07928	38.35483	573.41034	10.13628	690.45526	-1005.79614	
3517	35.160	-772.33820	-29.63999	-649.19879	799.94482	-24.73765	-642.42426	-689.80774	29.02534	487.32846	727.52197	38.36943	573.37231	10.75324	690.42236	-1006.09686	
3518	35.170	-771.88702	-29.40595	-649.13837	800.54938	-24.72792	-642.35681	-689.12720	29.17262	487.41934	728.04889	38.40828	573.32715	11.22153	690.38806	-1006.34851	
3519	35.180	-771.36523	-29.28483	-649.16248	801.03790	-24.81951	-642.37793	-688.50281	29.25929	487.35150	728.72998	38.41063	573.28387	12.01111	690.18964	-1006.53412	
3520	35.190	-771.31714	-29.00963	-648.94806	801.37335	-24.89229	-642.45392	-687.90894	29.21231	487.28525	729.40472	38.48414	573.32233	12.40856	690.21814	-1006.49805	
3521	35.200	-770.22729	-29.63872	-649.22223	802.02368	-24.82757	-642.47046	-687.37518	29.24507	487.22540	730.13617	38.42719	573.33606	12.97764	690.21753	-1006.37042	
3522	35.210	-769.24402	-29.82106	-649.28699	803.10504	-24.62226	-642.37744	-686.74292	29.26924	487.32880	730.55878	38.50666	573.33893	13.69609	690.14337	-1006.25427	
3523	35.220	-768.76923	-29.68193	-649.13110	803.58911	-24.36591	-642.42139	-686.23425	29.24333	487.31894	731.04749	38.50023	573.25916	14.22913	690.17572	-1006.14996	
3524	35.230	-768.55481	-29.54119	-649.10193	804.24707	-24.43750	-642.21729	-685.68024	29.29412	487.29260	731.59625	38.38361	573.15851	14.80955	690.19171	-1006.02014	
